<svg width="40" height="40" viewBox="0 0 40 40" fill="none" xmlns="http://www.w3.org/2000/svg">
<rect width="40" height="40" rx="20" fill="#D9D9D9"/>
<path d="M20.6087 7C16.9237 7 13.9365 9.98746 13.9365 13.6726C13.9365 17.3577 16.9237 20.3454 20.6087 20.3454C24.2937 20.3454 27.2809 17.3577 27.2809 13.6726C27.2809 9.98746 24.2937 7 20.6087 7ZM20.6087 16.431C19.0855 16.431 17.8506 15.196 17.8506 13.6726C17.8506 12.1493 19.0855 10.9144 20.6087 10.9144C22.132 10.9144 23.3669 12.1493 23.3669 13.6726C23.3669 15.196 22.132 16.431 20.6087 16.431Z" fill="white"/>
<path d="M22.9642 25.6538C25.6353 25.1096 27.236 23.8446 27.3207 23.7767C28.1023 23.1498 28.2279 22.008 27.6011 21.2262C26.9743 20.4445 25.8326 20.319 25.0508 20.9458C25.0343 20.9591 23.327 22.2688 20.518 22.2708C17.7091 22.2688 15.9657 20.9591 15.9492 20.9458C15.1674 20.319 14.0257 20.4445 13.3989 21.2262C12.7721 22.008 12.8977 23.1498 13.6793 23.7767C13.7651 23.8456 15.4319 25.1435 18.1779 25.6749L14.3508 29.6748C13.6553 30.3961 13.6762 31.5446 14.3975 32.2401C14.7496 32.5796 15.2033 32.7483 15.6566 32.7483C16.132 32.7483 16.6068 32.5626 16.9628 32.1934L20.5181 28.4058L24.4325 32.2179C25.1418 32.926 26.2903 32.9249 26.9982 32.2159C27.7061 31.5068 27.7052 30.3581 26.9962 29.6501L22.9642 25.6538Z" fill="white"/>
<path d="M20.5183 22.2734C20.5124 22.2734 20.5242 22.2736 20.5183 22.2737C20.5125 22.2736 20.5243 22.2734 20.5183 22.2734Z" fill="white"/>
</svg>
