<svg width="40" height="40" viewBox="0 0 40 40" fill="none" xmlns="http://www.w3.org/2000/svg">
<rect width="40" height="40" rx="20" fill="#D9D9D9"/>
<path d="M27.7601 14.4794C28.9971 14.4794 29.9998 13.4766 29.9998 12.2397C29.9998 11.0027 28.9971 10 27.7601 10C26.5232 10 25.5205 11.0027 25.5205 12.2397C25.5205 13.4766 26.5232 14.4794 27.7601 14.4794Z" fill="white"/>
<path d="M22.4381 21.4304H13.704V17.9742H22.4381C22.9482 17.9742 23.303 18.0631 23.481 18.2184C23.659 18.3737 23.7693 18.6617 23.7693 19.0825V20.3235C23.7693 20.7668 23.659 21.0548 23.481 21.2101C23.303 21.3654 22.9482 21.4318 22.4381 21.4318V21.4304ZM23.0373 14.7157H10V29.4964H13.704V24.6876H20.5302L23.7693 29.4964H27.9171L24.3459 24.665C25.6625 24.4699 26.2537 24.0664 26.7413 23.4015C27.2288 22.7365 27.4734 21.6733 27.4734 20.2545V19.1462C27.4734 18.3047 27.3843 17.6397 27.2288 17.13C27.0734 16.6203 26.8078 16.177 26.4304 15.7788C26.0318 15.4019 25.5881 15.1364 25.0553 14.9586C24.5226 14.8033 23.857 14.7144 23.0373 14.7144V14.7157Z" fill="white"/>
</svg>
